<?xml version="1.0" standalone="no"?>
<!DOCTYPE svg PUBLIC "-//W3C//DTD SVG 20010904//EN"
 "http://www.w3.org/TR/2001/REC-SVG-20010904/DTD/svg10.dtd">
<svg version="1.0" xmlns="http://www.w3.org/2000/svg"
 width="1179.000000pt" height="1134.000000pt" viewBox="0 0 1179.000000 1134.000000"
 preserveAspectRatio="xMidYMid meet">

<g transform="translate(0.000000,1134.000000) scale(0.100000,-0.100000)"
fill="#000000" stroke="none">
<path d="M0 5670 l0 -5670 5895 0 5895 0 0 5670 0 5670 -5895 0 -5895 0 0
-5670z m6310 5519 c1360 -94 2685 -740 3605 -1759 458 -507 788 -1033 1035
-1650 356 -892 468 -1864 325 -2830 -93 -629 -311 -1269 -621 -1825 -737
-1321 -1980 -2275 -3439 -2639 -290 -72 -597 -122 -905 -146 -187 -15 -643
-15 -830 0 -931 73 -1808 373 -2575 879 -923 610 -1648 1492 -2053 2501 -271
674 -395 1318 -395 2045 0 426 37 780 124 1175 362 1647 1480 3040 3018 3759
838 392 1748 556 2711 490z"/>
<path d="M6470 10084 c-232 -27 -329 -55 -630 -179 l-66 -27 -64 38 c-97 57
-189 91 -308 115 -462 91 -996 -93 -1507 -520 -170 -142 -425 -411 -531 -561
-21 -30 -41 -57 -45 -60 -12 -9 -135 -205 -187 -298 -184 -326 -296 -696 -372
-1227 -13 -93 -52 -300 -74 -396 -21 -87 -82 -273 -152 -457 -31 -81 -69 -183
-86 -227 -162 -433 -216 -694 -205 -1000 7 -206 29 -363 74 -534 19 -75 39
-176 44 -226 42 -463 188 -805 507 -1183 44 -52 81 -133 153 -342 69 -198 84
-274 84 -425 0 -128 -2 -143 -23 -181 -31 -52 -42 -58 -163 -89 -158 -40 -190
-74 -150 -158 24 -49 169 -201 237 -248 91 -62 228 -107 403 -133 l85 -12 9
-39 c7 -37 6 -42 -25 -69 -18 -15 -64 -48 -101 -72 -55 -36 -68 -49 -65 -67 4
-31 61 -48 188 -54 116 -6 284 9 370 33 178 50 300 126 460 286 l115 114 120
12 c210 23 348 76 505 193 l93 70 28 -34 c40 -48 95 -67 213 -74 260 -14 486
64 637 220 l66 69 11 -44 c24 -94 113 -139 279 -138 136 0 265 55 338 144 38
47 98 182 116 261 l12 53 38 -57 c59 -89 160 -178 246 -218 92 -42 202 -53
303 -30 180 41 252 102 315 265 21 54 32 71 44 68 9 -3 58 -8 109 -11 89 -7
93 -8 114 -39 68 -100 200 -193 327 -232 87 -26 234 -14 317 27 86 41 194 144
194 185 0 14 -81 64 -103 64 -10 0 -19 18 -27 51 -14 58 -20 50 70 101 69 39
122 88 166 154 47 70 65 127 67 208 2 64 0 70 -26 90 -25 18 -43 21 -144 22
-85 1 -118 5 -124 15 -16 25 -39 112 -39 149 0 67 56 360 112 583 l32 127 17
-32 c47 -90 173 -178 256 -178 56 0 56 14 3 116 -34 63 -39 82 -34 112 8 49
58 155 130 277 223 376 314 674 314 1031 0 348 -96 798 -239 1119 -10 22 -35
78 -56 125 -41 92 -222 459 -235 475 -23 29 -262 514 -293 595 -20 52 -63 181
-96 285 -95 301 -133 408 -200 561 -210 483 -496 829 -938 1136 -213 147 -506
270 -733 306 -78 13 -231 21 -280 16z m-3 -1569 c248 -45 335 -68 513 -135 47
-18 137 -49 200 -70 63 -21 138 -47 165 -58 28 -11 93 -36 145 -57 120 -47
163 -77 281 -194 109 -110 207 -251 272 -392 104 -225 147 -404 167 -687 5
-81 12 -156 14 -167 2 -11 7 -76 10 -145 4 -69 9 -154 11 -190 3 -36 10 -152
15 -259 9 -166 14 -199 32 -235 28 -54 29 -55 29 -167 1 -121 -23 -216 -55
-221 -19 -3 -23 -18 -48 -170 -26 -158 -81 -358 -122 -437 -9 -17 -17 -34 -17
-38 0 -5 -6 -15 -13 -23 -6 -8 -18 -28 -26 -45 -8 -16 -32 -61 -54 -100 -22
-38 -39 -72 -37 -74 1 -2 -1 -7 -6 -10 -5 -3 -31 -42 -58 -86 -27 -44 -52 -82
-55 -85 -3 -3 -19 -25 -35 -50 -17 -25 -33 -49 -38 -55 -46 -61 -115 -149
-145 -184 -66 -80 -256 -266 -302 -298 -81 -55 -213 -121 -305 -151 -83 -27
-129 -38 -320 -73 -76 -14 -403 -19 -495 -7 -64 8 -107 16 -135 25 -11 4 -24
8 -30 9 -35 10 -138 52 -143 60 -4 5 -13 10 -21 12 -13 3 -124 57 -256 126
-71 37 -138 77 -145 88 -3 4 -21 14 -40 22 -19 9 -73 43 -120 76 -105 74 -164
114 -167 112 -2 -1 -16 12 -32 28 -15 17 -33 30 -39 30 -6 0 -12 4 -14 8 -1 4
-19 18 -39 30 -38 23 -65 45 -150 121 -27 24 -49 40 -49 36 0 -9 -48 42 -70
73 -8 12 -19 22 -25 22 -6 0 -26 19 -45 42 -19 23 -47 53 -62 67 -16 13 -28
28 -28 33 0 9 -34 51 -67 84 -13 12 -23 26 -23 33 0 17 -39 53 -51 46 -5 -4
-9 -3 -7 2 3 14 -37 73 -50 73 -7 0 -11 4 -8 9 3 5 -5 20 -19 35 -13 14 -22
26 -18 26 3 0 -4 8 -15 18 -12 9 -22 23 -24 31 -2 8 -19 30 -38 50 -19 19 -34
38 -33 42 2 4 -16 22 -39 40 l-41 33 6 -52 c5 -39 2 -55 -9 -67 -9 -8 -19 -15
-24 -15 -5 0 -16 -3 -25 -6 -15 -6 -16 0 -11 57 3 35 8 116 11 179 7 146 15
244 28 340 5 30 15 102 23 160 18 128 22 158 34 235 5 33 21 148 35 255 31
236 50 354 71 440 9 36 18 75 19 87 2 11 8 36 14 55 44 136 74 224 81 237 4 9
22 45 40 81 17 36 46 92 65 125 19 33 38 69 44 80 15 35 123 190 138 198 7 4
13 14 13 20 0 7 48 62 108 124 102 106 126 124 333 255 72 46 324 168 429 209
30 11 69 26 85 33 95 41 134 56 170 68 22 7 74 30 115 52 41 21 93 47 115 58
22 12 56 34 75 51 63 55 122 87 161 87 21 0 100 -11 176 -25z"/>
<path d="M5314 7294 c-147 -15 -249 -36 -352 -70 -93 -31 -260 -113 -323 -160
-61 -45 -129 -119 -129 -142 0 -22 19 -42 39 -42 9 0 83 34 166 74 151 75 267
115 400 136 91 15 295 15 365 1 89 -18 252 -25 291 -12 43 14 87 54 95 87 8
33 -20 73 -67 96 -84 41 -283 54 -485 32z"/>
<path d="M6936 7144 c-36 -35 -11 -109 65 -189 80 -85 171 -122 399 -162 119
-21 179 -26 330 -26 237 -1 300 15 300 79 0 30 -7 32 -195 38 -228 7 -341 39
-609 173 -201 101 -259 118 -290 87z"/>
<path d="M7344 6555 c-180 -39 -350 -203 -369 -356 l-5 -44 31 68 c33 69 49
84 49 44 0 -29 35 -134 51 -153 27 -32 424 -4 478 34 49 35 65 41 77 31 7 -6
30 -9 51 -7 34 3 39 6 49 43 17 55 17 153 0 208 -13 42 -12 47 2 47 19 0 151
-71 215 -116 52 -37 65 -41 73 -20 9 24 -13 52 -80 100 -158 113 -423 164
-622 121z m-24 -85 c23 -44 -23 -110 -76 -110 -23 0 -38 8 -53 26 -26 33 -17
47 54 79 63 29 62 29 75 5z"/>
<path d="M5440 6383 c-102 -9 -232 -48 -337 -102 -159 -80 -379 -295 -358
-349 6 -15 8 -15 18 -2 10 13 203 150 212 150 1 0 5 -24 7 -52 3 -29 16 -80
29 -113 l24 -60 165 -3 c230 -4 310 7 362 49 41 32 41 32 73 15 74 -40 106 5
106 149 1 75 -5 101 -46 197 -6 16 -4 17 26 6 86 -29 170 -111 222 -218 26
-53 33 -61 35 -41 23 161 -165 337 -395 371 -68 10 -76 10 -143 3z m-166 -149
c31 -81 -56 -148 -129 -100 -39 26 -27 47 45 83 75 38 76 38 84 17z"/>
<path d="M6961 5112 c-29 -70 -62 -88 -216 -121 -93 -20 -290 -24 -329 -6 -14
6 -17 4 -15 -10 10 -50 152 -91 256 -75 166 27 274 93 308 189 17 49 14 67 -4
23z"/>
<path d="M7145 4703 c-11 -3 -79 -24 -151 -49 -72 -24 -198 -57 -280 -74 -135
-27 -167 -30 -344 -30 -108 0 -231 4 -275 10 -115 13 -215 17 -255 10 l-35 -6
35 -7 c76 -15 283 -36 415 -42 188 -9 447 20 627 69 160 44 369 126 318 125
-19 -1 -44 -3 -55 -6z"/>
</g>
</svg>
